<?xml version="1.0" standalone="no"?>
<!DOCTYPE svg PUBLIC "-//W3C//DTD SVG 20010904//EN"
 "http://www.w3.org/TR/2001/REC-SVG-20010904/DTD/svg10.dtd">
<svg version="1.0" xmlns="http://www.w3.org/2000/svg"
 width="500.000000pt" height="500.000000pt" viewBox="0 0 500.000000 500.000000"
 preserveAspectRatio="xMidYMid meet">
<metadata>
Created by potrace 1.11, written by Peter Selinger 2001-2013
</metadata>
<g transform="translate(0.000000,500.000000) scale(0.100000,-0.100000)"
fill="#000000" stroke="none">
<path d="M3047 3903 c2 -65 13 -351 23 -636 11 -285 20 -527 20 -538 0 -14
-13 -26 -47 -40 -82 -35 -343 -129 -359 -129 -9 0 -66 26 -127 59 -309 162
-405 211 -414 211 -5 0 -22 -64 -37 -142 -16 -79 -61 -307 -101 -507 l-72
-365 39 -110 c22 -61 48 -133 58 -161 25 -68 173 -483 222 -625 22 -63 49
-137 59 -165 46 -128 60 -168 99 -280 61 -178 54 -168 80 -110 12 28 76 163
140 300 143 305 161 343 243 520 61 133 107 230 199 428 23 48 44 87 48 87 3
0 12 -174 18 -387 7 -214 15 -414 19 -447 l6 -58 833 833 c459 459 834 837
834 840 0 4 -39 40 -87 81 -85 73 -208 178 -863 743 -172 149 -399 344 -505
435 -105 91 -221 191 -257 223 -36 31 -67 57 -70 57 -3 0 -3 -53 -1 -117z
m-320 -1652 c79 -36 119 -133 111 -270 -6 -99 -35 -162 -91 -199 -35 -23 -53
-27 -126 -30 -74 -3 -92 0 -131 20 -78 40 -110 109 -110 238 0 129 32 198 110
238 58 29 175 31 237 3z m1160 -11 c61 -27 83 -68 83 -156 0 -123 -55 -174
-187 -174 l-73 0 0 -80 0 -80 -65 0 -65 0 0 255 0 255 133 0 c108 0 140 -4
174 -20z"/>
<path d="M2574 2166 c-19 -8 -36 -27 -45 -47 -20 -48 -17 -185 4 -225 20 -39
65 -57 106 -43 43 15 61 61 61 159 0 99 -18 144 -62 159 -17 6 -31 11 -32 11
-1 -1 -15 -7 -32 -14z"/>
<path d="M3710 2085 l0 -88 52 5 c61 6 78 24 78 83 0 53 -23 76 -85 82 l-45 6
0 -88z"/>
<path d="M4069 3786 c-137 -49 -207 -218 -145 -351 46 -100 147 -161 253 -153
70 5 119 27 169 75 52 51 74 105 74 184 0 148 -109 259 -255 258 -33 0 -76 -6
-96 -13z"/>
<path d="M2640 3189 c-128 -25 -219 -168 -191 -299 19 -90 77 -158 165 -194
112 -46 259 15 322 134 13 25 19 57 19 110 0 64 -4 82 -27 121 -62 105 -168
152 -288 128z"/>
</g>
</svg>
